<?xml version="1.0" encoding="utf-8"?>
<svg viewBox="232.0497 224.5 35.9003 51" width="35.9" height="51" xmlns="http://www.w3.org/2000/svg">
  <path fill="currentColor" d="M 267.814 244.486 C 267.675 243.109 267.537 241.591 267.261 240.214 C 266.985 238.833 266.711 237.456 266.16 236.079 C 265.884 235.389 265.608 234.7 265.332 234.15 C 265.055 233.459 264.643 232.909 264.367 232.218 C 263.955 231.668 263.54 230.979 263.128 230.427 C 262.692 229.855 262.182 229.347 261.611 228.912 C 260.589 228.021 259.479 227.237 258.302 226.568 C 257.055 225.862 255.707 225.352 254.307 225.053 C 252.924 224.638 251.547 224.5 250.029 224.5 C 248.514 224.5 247.135 224.638 245.758 225.053 C 244.379 225.329 243.138 225.879 241.897 226.568 C 240.52 227.256 239.417 228.085 238.314 229.05 C 237.762 229.462 237.35 230.014 236.797 230.565 L 235.558 232.218 C 235.282 232.909 234.868 233.459 234.593 234.15 L 233.765 236.217 C 233.352 237.594 232.938 238.973 232.662 240.352 C 232.386 241.73 232.25 243.109 232.111 244.624 C 231.973 246.141 232.111 247.382 232.111 248.759 C 232.111 250.138 232.25 251.515 232.526 253.032 L 232.938 255.1 C 233.076 255.789 233.352 256.479 233.627 257.168 C 234.591 259.786 236.109 262.268 237.624 264.612 C 238.452 265.852 239.279 266.953 240.106 268.056 C 240.934 269.161 241.759 270.4 242.726 271.365 C 243.138 271.917 243.691 272.329 244.241 272.882 C 244.793 273.294 245.346 273.709 246.032 274.121 C 246.585 274.535 247.273 274.812 247.962 275.086 C 248.238 275.224 248.652 275.362 248.927 275.362 C 249.341 275.362 249.617 275.5 250.032 275.5 C 250.444 275.5 250.72 275.5 251.132 275.362 C 251.547 275.362 251.823 275.224 252.097 275.086 C 252.788 274.809 253.476 274.533 254.027 274.121 C 254.579 273.709 255.268 273.294 255.82 272.882 C 256.373 272.468 256.923 271.917 257.335 271.365 C 258.3 270.262 259.127 269.159 259.955 268.056 C 260.782 266.953 261.609 265.714 262.435 264.612 C 263.952 262.268 265.468 259.788 266.432 257.168 C 266.709 256.479 266.985 255.789 267.123 255.1 C 267.261 254.411 267.535 253.721 267.535 253.032 C 267.811 251.653 267.95 250.276 267.95 248.761 C 267.95 247.38 267.95 245.865 267.811 244.486 L 267.814 244.486 Z M 234.732 250.138 C 234.732 250.138 242.59 251.929 247.69 262.544 C 247.552 262.544 234.043 262.268 234.732 250.138 Z M 252.514 262.544 C 257.475 251.929 265.47 250.138 265.47 250.138 C 266.16 262.268 252.514 262.544 252.514 262.544 Z" transform="matrix(1, 0, 0, 1, 3.552713678800501e-15, 3.552713678800501e-15)"/>
</svg>