<?xml version="1.0" encoding="utf-8"?>
<svg viewBox="22.822 16.43 204.357 92.09" width="204.357" height="92.09" xmlns="http://www.w3.org/2000/svg">
  <defs>
    <linearGradient id="sw-gradient" x1="0" x2="1" y1="1" y2="0">
      <stop id="stop1" stop-color="rgba(230, 51, 57, 1)" offset="0"/>
      <stop id="stop2" stop-color="rgba(251, 46.371, 31, 1)" offset="1"/>
    </linearGradient>
  </defs>
  <g transform="matrix(1, 0, 0, 1, 22.822487, 12.406843)">
    <path fill="url(#sw-gradient)" d="M 22.223 73.006 C 16.296 66.353 10.732 60.91 6.015 52.685 C 1.418 44.46 -2.453 33.332 1.901 27.888 C 6.256 22.324 18.594 22.566 29.359 18.937 C 40.245 15.309 49.318 7.809 58.631 7.809 C 67.825 7.93 77.138 15.429 79.437 24.502 C 81.614 33.573 76.896 44.218 75.082 55.467 C 73.146 66.716 74.235 78.57 68.913 85.344 C 63.711 92.117 52.221 93.812 43.27 90.666 C 34.44 87.642 28.15 79.659 22.223 73.006 Z" width="100%" height="100%" stroke-width="0" style="transition: all 0.3s ease 0s;"/>
    <path d="M 39.974 66.234 L 34.869 66.234 Q 34.471 66.234 34.471 65.885 L 34.421 31.147 Q 34.421 30.748 34.82 30.748 L 39.426 30.748 L 48.043 50.844 L 47.794 31.147 Q 47.794 30.748 48.242 30.748 L 53.297 30.748 Q 53.596 30.748 53.596 31.147 L 53.646 65.935 Q 53.646 66.234 53.397 66.234 L 48.914 66.234 L 40.074 47.458 L 40.447 65.836 Q 40.447 66.234 39.974 66.234 Z" style="fill: rgb(255, 255, 255); white-space: pre;"/>
  </g>
  <path d="M 114.978 75.916 Q 113.291 75.916 111.853 75.041 Q 110.416 74.166 109.564 72.69 Q 108.713 71.213 108.713 69.463 L 108.775 53.463 Q 108.775 53.338 108.9 53.338 L 112.494 53.338 Q 112.619 53.338 112.619 53.463 L 112.619 69.463 Q 112.619 70.541 113.306 71.299 Q 113.994 72.057 114.978 72.057 Q 116.01 72.057 116.697 71.299 Q 117.385 70.541 117.385 69.463 L 117.385 53.463 Q 117.385 53.338 117.51 53.338 L 121.103 53.338 Q 121.228 53.338 121.228 53.463 L 121.291 69.463 Q 121.291 71.229 120.447 72.713 Q 119.588 74.182 118.166 75.049 Q 116.744 75.916 114.978 75.916 Z" style="white-space: pre;"/>
  <path d="M 137.184 75.573 L 131.45 75.604 Q 131.294 75.604 131.294 75.448 L 131.356 53.463 Q 131.356 53.338 131.481 53.338 L 137.465 53.307 Q 139.247 53.26 140.684 54.12 Q 142.137 54.979 143.005 56.44 Q 143.872 57.901 143.872 59.666 L 143.872 68.854 Q 143.872 70.698 142.981 72.229 Q 142.075 73.745 140.575 74.643 Q 139.075 75.541 137.184 75.573 Z M 137.465 57.135 L 135.231 57.166 L 135.2 71.666 L 137.184 71.666 Q 138.372 71.666 139.184 70.838 Q 139.997 70.01 139.997 68.854 L 139.997 59.635 Q 139.997 58.62 139.247 57.862 Q 138.497 57.104 137.465 57.135 Z" style="white-space: pre;"/>
  <path d="M 157.656 75.604 L 154.031 75.604 Q 153.875 75.604 153.875 75.448 L 153.906 53.463 Q 153.906 53.338 154.031 53.338 L 157.625 53.338 Q 157.75 53.338 157.75 53.463 L 157.781 75.448 Q 157.781 75.604 157.656 75.604 Z" style="white-space: pre;"/>
  <path d="M 173.533 75.916 Q 171.83 75.916 170.392 75.041 Q 168.97 74.166 168.119 72.706 Q 167.267 71.245 167.267 69.495 L 167.267 68.026 Q 167.267 67.854 167.423 67.854 L 171.017 67.854 Q 171.142 67.854 171.142 68.026 L 171.142 69.495 Q 171.142 70.541 171.845 71.299 Q 172.548 72.057 173.533 72.057 Q 174.533 72.057 175.236 71.284 Q 175.939 70.51 175.939 69.495 Q 175.939 68.323 174.408 67.448 Q 174.158 67.291 173.759 67.065 Q 173.361 66.838 172.814 66.541 Q 172.267 66.245 171.751 65.956 Q 171.236 65.666 170.751 65.401 Q 169.001 64.37 168.15 62.815 Q 167.298 61.26 167.298 59.323 Q 167.298 57.541 168.173 56.104 Q 169.048 54.682 170.462 53.846 Q 171.876 53.01 173.533 53.01 Q 175.236 53.01 176.658 53.854 Q 178.08 54.713 178.931 56.135 Q 179.783 57.557 179.783 59.323 L 179.783 61.948 Q 179.783 62.073 179.658 62.073 L 176.064 62.073 Q 175.939 62.073 175.939 61.948 L 175.908 59.323 Q 175.908 58.198 175.205 57.495 Q 174.501 56.791 173.533 56.791 Q 172.548 56.791 171.845 57.541 Q 171.142 58.291 171.142 59.323 Q 171.142 60.37 171.587 61.073 Q 172.033 61.776 173.22 62.416 Q 173.345 62.479 173.798 62.729 Q 174.251 62.979 174.806 63.284 Q 175.361 63.588 175.814 63.831 Q 176.267 64.073 176.361 64.12 Q 177.955 65.01 178.884 66.307 Q 179.814 67.604 179.814 69.495 Q 179.814 71.323 178.97 72.776 Q 178.111 74.229 176.689 75.073 Q 175.267 75.916 173.533 75.916 Z" style="white-space: pre;"/>
  <path d="M 195.723 75.604 L 192.114 75.604 Q 191.973 75.604 191.973 75.448 L 191.973 57.198 L 187.817 57.198 Q 187.66 57.198 187.66 57.041 L 187.692 53.463 Q 187.692 53.338 187.817 53.338 L 199.973 53.338 Q 200.145 53.338 200.145 53.463 L 200.145 57.041 Q 200.145 57.198 200.02 57.198 L 195.817 57.198 L 195.848 75.448 Q 195.848 75.604 195.723 75.604 Z" style="white-space: pre;"/>
  <path d="M 206.178 75.448 L 210.147 53.463 Q 210.178 53.338 210.303 53.338 L 214.944 53.338 Q 215.069 53.338 215.1 53.463 L 218.913 75.448 Q 218.928 75.604 218.788 75.604 L 215.241 75.604 Q 215.085 75.604 215.069 75.448 L 214.725 73.104 L 210.366 73.104 L 210.022 75.448 Q 210.007 75.604 209.866 75.604 L 206.303 75.604 Q 206.178 75.604 206.178 75.448 Z M 212.772 60.698 L 212.585 59.51 L 212.444 60.698 L 211.007 69.682 L 214.085 69.682 Z" style="white-space: pre;"/>
</svg>