<?xml version="1.0" encoding="utf-8"?>
<svg viewBox="0 0 250 125" xmlns="http://www.w3.org/2000/svg">
  <defs>
    <linearGradient id="sw-gradient" x1="0" x2="1" y1="1" y2="0">
      <stop id="stop1" stop-color="rgba(230, 51, 57, 1)" offset="0"/>
      <stop id="stop2" stop-color="rgba(251, 46.371, 31, 1)" offset="1"/>
    </linearGradient>
  </defs>
  <g transform="matrix(1, 0, 0, 1, 22.822486877441406, 12.406843185424805)">
    <path fill="url(#sw-gradient)" d="M 22.223 73.006 C 16.296 66.353 10.732 60.91 6.015 52.685 C 1.418 44.46 -2.453 33.332 1.901 27.888 C 6.256 22.324 18.594 22.566 29.359 18.937 C 40.245 15.309 49.318 7.809 58.631 7.809 C 67.825 7.93 77.138 15.429 79.437 24.502 C 81.614 33.573 76.896 44.218 75.082 55.467 C 73.146 66.716 74.235 78.57 68.913 85.344 C 63.711 92.117 52.221 93.812 43.27 90.666 C 34.44 87.642 28.15 79.659 22.223 73.006 Z" width="100%" height="100%" stroke-width="0" style="transition: all 0.3s ease 0s;"/>
    <path d="M 32.703 65.985 L 39.028 30.947 Q 39.078 30.748 39.277 30.748 L 46.673 30.748 Q 46.872 30.748 46.922 30.947 L 52.998 65.985 Q 53.023 66.234 52.799 66.234 L 47.146 66.234 Q 46.897 66.234 46.872 65.985 L 46.324 62.25 L 39.377 62.25 L 38.829 65.985 Q 38.804 66.234 38.58 66.234 L 32.902 66.234 Q 32.703 66.234 32.703 65.985 Z M 43.212 42.477 L 42.913 40.585 L 42.689 42.477 L 40.398 56.796 L 45.303 56.796 Z" style="fill: rgb(255, 255, 255);"/>
  </g>
  <path d="M 112.838 75.604 L 109.213 75.604 Q 109.088 75.604 109.088 75.448 L 109.15 53.463 Q 109.15 53.338 109.275 53.338 L 115.744 53.338 Q 117.478 53.338 118.931 54.182 Q 120.384 55.026 121.252 56.448 Q 122.119 57.87 122.119 59.666 Q 122.119 60.838 121.759 61.791 Q 121.4 62.745 120.924 63.401 Q 120.447 64.057 120.056 64.37 Q 121.791 66.291 121.791 68.885 L 121.822 75.448 Q 121.822 75.604 121.666 75.604 L 118.041 75.604 Q 117.916 75.604 117.916 75.51 L 117.916 68.885 Q 117.916 67.729 117.103 66.885 Q 116.291 66.041 115.103 66.041 L 112.994 66.041 L 112.963 75.448 Q 112.963 75.604 112.838 75.604 Z M 115.744 57.166 L 112.994 57.166 L 112.994 62.198 L 115.744 62.198 Q 116.728 62.198 117.502 61.463 Q 118.275 60.729 118.275 59.666 Q 118.275 58.651 117.525 57.909 Q 116.775 57.166 115.744 57.166 Z"/>
  <path d="M 142.478 75.604 L 132.134 75.604 Q 132.009 75.604 132.009 75.448 L 132.041 53.463 Q 132.041 53.338 132.166 53.338 L 142.447 53.338 Q 142.572 53.338 142.572 53.495 L 142.572 57.073 Q 142.572 57.198 142.447 57.198 L 135.884 57.198 L 135.884 62.198 L 142.447 62.198 Q 142.572 62.198 142.572 62.323 L 142.603 65.948 Q 142.603 66.073 142.478 66.073 L 135.884 66.073 L 135.884 71.666 L 142.478 71.666 Q 142.603 71.666 142.603 71.823 L 142.603 75.479 Q 142.603 75.604 142.478 75.604 Z"/>
  <path d="M 151.869 75.448 L 155.838 53.463 Q 155.869 53.338 155.994 53.338 L 160.634 53.338 Q 160.759 53.338 160.791 53.463 L 164.603 75.448 Q 164.619 75.604 164.478 75.604 L 160.931 75.604 Q 160.775 75.604 160.759 75.448 L 160.416 73.104 L 156.056 73.104 L 155.713 75.448 Q 155.697 75.604 155.556 75.604 L 151.994 75.604 Q 151.869 75.604 151.869 75.448 Z M 158.463 60.698 L 158.275 59.51 L 158.134 60.698 L 156.697 69.682 L 159.775 69.682 Z"/>
  <path d="M 180.556 66.354 L 174.369 66.354 Q 174.213 66.354 174.213 66.229 L 174.213 62.745 Q 174.213 62.62 174.369 62.62 L 180.556 62.62 Q 180.713 62.62 180.713 62.745 L 180.713 66.229 Q 180.713 66.354 180.556 66.354 Z"/>
  <path d="M 197.025 75.916 Q 195.322 75.916 193.9 75.057 Q 192.463 74.198 191.595 72.776 Q 190.728 71.354 190.728 69.682 L 190.728 68.729 Q 190.728 68.588 190.884 68.588 L 194.509 68.588 Q 194.634 68.588 194.634 68.729 L 194.634 69.463 Q 194.634 70.541 195.338 71.284 Q 196.041 72.026 197.025 72.026 Q 198.025 72.026 198.713 71.268 Q 199.4 70.51 199.4 69.463 L 199.4 67.291 Q 199.4 66.291 198.681 65.62 Q 197.963 64.948 196.9 64.948 Q 195.525 64.948 194.634 66.041 L 194.572 66.135 L 191.15 65.87 Q 190.978 65.87 190.978 65.713 L 191.369 56.948 L 191.556 53.463 Q 191.556 53.338 191.681 53.338 L 202.447 53.338 Q 202.572 53.338 202.572 53.463 L 202.572 56.948 Q 202.572 57.104 202.447 57.104 L 194.947 57.104 L 194.791 61.526 Q 195.181 61.338 195.806 61.206 Q 196.431 61.073 196.931 61.073 Q 198.666 61.073 200.119 61.916 Q 201.572 62.776 202.439 64.182 Q 203.306 65.588 203.306 67.291 L 203.306 69.463 Q 203.306 71.198 202.463 72.682 Q 201.603 74.151 200.181 75.034 Q 198.759 75.916 197.025 75.916 Z"/>
  <path d="M 216.416 75.604 L 212.791 75.604 Q 212.634 75.604 212.634 75.448 L 212.666 53.463 Q 212.666 53.338 212.791 53.338 L 216.384 53.338 Q 216.509 53.338 216.509 53.463 L 216.541 75.448 Q 216.541 75.604 216.416 75.604 Z"/>
</svg>